<svg xmlns="http://www.w3.org/2000/svg" viewBox="0 0 512 512" fill="none" role="img" aria-label="PetCare Responsável">
  <defs>
    <linearGradient id="petcare-bg" x1="72" y1="56" x2="440" y2="456" gradientUnits="userSpaceOnUse">
      <stop stop-color="#1565A8"/>
      <stop offset="1" stop-color="#0B3A6E"/>
    </linearGradient>
    <linearGradient id="petcare-paw" x1="180" y1="140" x2="332" y2="380" gradientUnits="userSpaceOnUse">
      <stop stop-color="#FFFFFF"/>
      <stop offset="1" stop-color="#EAF4FF"/>
    </linearGradient>
  </defs>
  <rect width="512" height="512" rx="112" fill="url(#petcare-bg)"/>
  <g fill="url(#petcare-paw)" transform="translate(256 272)">
    <ellipse cx="0" cy="52" rx="88" ry="72"/>
    <ellipse cx="-70" cy="-58" rx="34" ry="40" transform="rotate(-18 -70 -58)"/>
    <ellipse cx="-24" cy="-82" rx="34" ry="40"/>
    <ellipse cx="24" cy="-82" rx="34" ry="40"/>
    <ellipse cx="70" cy="-58" rx="34" ry="40" transform="rotate(18 70 -58)"/>
  </g>
  <g fill="#F8FAFC" opacity="0.28" transform="translate(148 352) scale(0.42)">
    <ellipse cx="0" cy="52" rx="88" ry="72"/>
    <ellipse cx="-70" cy="-58" rx="34" ry="40" transform="rotate(-18 -70 -58)"/>
    <ellipse cx="-24" cy="-82" rx="34" ry="40"/>
    <ellipse cx="24" cy="-82" rx="34" ry="40"/>
    <ellipse cx="70" cy="-58" rx="34" ry="40" transform="rotate(18 70 -58)"/>
  </g>
</svg>
