<svg xmlns="http://www.w3.org/2000/svg" viewBox="0 0 120 120" fill="none" role="img" aria-label="Căo">
  <rect width="120" height="120" rx="24" fill="#EAF4FF"/>
  <circle cx="60" cy="52" r="28" fill="#0B3A6E" opacity="0.12"/>
  <path d="M38 48c-6 0-10 6-8 12 2 8 10 14 18 14h24c8 0 16-6 18-14 2-6-2-12-8-12-3 0-5 2-6 4-4-6-12-10-20-10s-16 4-20 10c-1-2-3-4-6-4z" fill="#0B3A6E"/>
  <circle cx="48" cy="50" r="3" fill="#fff"/>
  <circle cx="72" cy="50" r="3" fill="#fff"/>
  <ellipse cx="60" cy="58" rx="5" ry="4" fill="#1565a8"/>
</svg>
